<?xml version="1.0" encoding="UTF-8" standalone="no"?>
<!-- Generator: Adobe Illustrator 16.0.0, SVG Export Plug-In . SVG Version: 6.00 Build 0)  -->

<svg
   xmlns:dc="http://purl.org/dc/elements/1.1/"
   xmlns:cc="http://creativecommons.org/ns#"
   xmlns:rdf="http://www.w3.org/1999/02/22-rdf-syntax-ns#"
   xmlns:svg="http://www.w3.org/2000/svg"
   xmlns="http://www.w3.org/2000/svg"
   xmlns:sodipodi="http://sodipodi.sourceforge.net/DTD/sodipodi-0.dtd"
   xmlns:inkscape="http://www.inkscape.org/namespaces/inkscape"
   version="1.1"
   id="Capa_1"
   x="0px"
   y="0px"
   width="50px"
   height="50px"
   viewBox="0 0 50 50"
   enable-background="new 0 0 50 50"
   xml:space="preserve"
   sodipodi:docname="emprende_logo.svg"
   inkscape:version="0.92.1 r15371"><metadata
     id="metadata3707"><rdf:RDF><cc:Work
         rdf:about=""><dc:format>image/svg+xml</dc:format><dc:type
           rdf:resource="http://purl.org/dc/dcmitype/StillImage" /><dc:title /></cc:Work></rdf:RDF></metadata><defs
     id="defs3705" /><sodipodi:namedview
     pagecolor="#ffffff"
     bordercolor="#666666"
     borderopacity="1"
     objecttolerance="10"
     gridtolerance="10"
     guidetolerance="10"
     inkscape:pageopacity="0"
     inkscape:pageshadow="2"
     inkscape:window-width="1842"
     inkscape:window-height="1057"
     id="namedview3703"
     showgrid="false"
     inkscape:zoom="75.52"
     inkscape:cx="43.492036"
     inkscape:cy="41.069712"
     inkscape:window-x="70"
     inkscape:window-y="-8"
     inkscape:window-maximized="1"
     inkscape:current-layer="g3700" /><g
     id="stickman"><circle
       id="head"
       fill="#009FE3"
       cx="30.708"
       cy="16.481"
       r="4.542" /><path
       id="cap"
       inkscape:connector-curvature="0"
       d="m 25.353,21.311 c 0,0 -1.572,-0.052 -2.493,0.152 -0.292,0.065 -1.39,0.169 -2.938,1.016 -1.828,1 -3.201,1.975 -4.781,3.922 -1.344,1.656 -2.837,3.333 -4.016,5.047 -2.203,3.203 -4.924,5.434 -5.438,5.938 -0.156,0.153 1.274,0.064 3.25,0.156 1.131,0.053 4.938,-0.563 4.938,-0.563 -0.578,0.641 -1.641,1.969 -1.641,1.969 C 11.533,39.2 8.09,39.149 6.64,39.073 6.032,39.04 0.883,38.667 1.281,38.4 2.469,37.603 4.113,36.606 4.547,36.275 6,35.166 6.219,34.76 6.797,34.119 c 1.438,-1.531 2.85,-3.254 3.469,-4.219 0.672,-1.047 1.537,-2.08 2.063,-2.734 0.687,-0.855 1.734,-2.049 2.859,-3.203 0,0 1.63,-1.495 2.297,-1.984 0.188,-0.138 1.592,-1.072 2.781,-1.5 0,0 1.349754,-0.418336 2.584758,-0.614309 C 24.085762,19.668718 25.353,19.691 25.353,19.691 c 0.223,0 0.413,0.08 0.573,0.24 0.16,0.155 0.24,0.346 0.24,0.573 0,0.222 -0.08,0.414 -0.24,0.574 -0.16,0.155 -0.351,0.233 -0.573,0.233 z"
       style="fill:#67c91d;fill-opacity:1"
       sodipodi:nodetypes="cccccccccccccccccczccscc" /><path
       id="body"
       fill="#009FE3"
       d="M44.852,13.457c-0.329-0.38-0.738-0.588-1.229-0.616c-0.501-0.04-0.936,0.102-1.31,0.422   l-9.563,8.873l-3.953,0.031c-3.656,0.531-7.949,1.555-9.094,1.922c-1.219,0.391-1.234,1.219-1.219,1.922l0.406,7.141L8.92,45.105   c-1.17,1.357-0.32,2.746,0.148,3.124c0.509,0.411,1.541,1.233,3.166-0.079l8.234-9.797l2.375-0.109l-3.155,3.079   c-0.767,0.78-0.453,2.364,0.14,2.905c0.547,0.5,2.063,1.25,3.328-0.109c0,0,7.372-7.127,7.392-7.149   c0.624-0.741,0.749-1.896,0.046-2.741c-0.757-0.91-1.172-1.031-2.859-0.906c0,0,4.217-5.387,4.266-5.453   c0.548-0.729,10.273-9.551,11.031-10.25c0.976-0.901,1.703-1.578,1.703-1.578c0.374-0.32,0.494-0.785,0.542-1.275   C45.314,14.266,45.171,13.829,44.852,13.457z M22.328,29.166l-0.141-1.953l2.047-0.391L22.328,29.166z" /></g><g
     id="g3700"><path
       fill="#E8AF2D"
       d="M43.184,0.625c-2.043,0-3.698,1.656-3.698,3.699c2.735,2.651,3.142,0.358,3.698,0.354   c1.064-0.008,1.773,2.195,3.699-0.354C46.883,2.281,45.227,0.625,43.184,0.625z"
       id="path3684" /><path
       fill="#E8AF2D"
       d="M39.485,4.324c0.405,2.308,1.521,2.59,2.128,5.002c1.32,0.878,1.219,0.676,3.344,0.173   c0.305-2.22,1.926-3.559,1.926-5.175C46.983,1.909,39.789,2.382,39.485,4.324z"
       id="path3686" /><path
       fill="#A6A8AB"
       d="M42.014,11.584c0,0.351,0.229,0.635,0.51,0.635h1.525c0.281,0,0.508-0.284,0.508-0.635v-1.142h-2.543   V11.584z"
       id="path3688"
       style="fill:#ffffff" /><path
       fill="#221F1F"
       d="M41.381,10.893c0,0.352,0.284,0.636,0.635,0.636h2.539c0.352,0,0.637-0.284,0.637-0.636V9.042h-3.811   V10.893z"
       id="path3690" /><path
       fill="#FDE03A"
       d="M45.158,1.643c-0.604-0.438-2.23-1.011-3.145-0.338c-0.907,0.671-0.024,1.197,0.629,1.272   c0.936,0.108,2.346,0.407,2.832,1.579c0.654,1.57,0.117,2.735,0.238,2.447c0.342-0.81,0.709-1.269,0.807-2.138   C46.615,3.597,45.997,2.251,45.158,1.643z"
       id="path3692" /><path
       fill="#413F41"
       d="M45.232,9.35H41.32c-0.047,0-0.087,0.041-0.087,0.091V9.6c0,0.051,0.04,0.092,0.087,0.092h3.912   c0.049,0,0.088-0.041,0.088-0.092V9.44C45.32,9.391,45.281,9.35,45.232,9.35z"
       id="path3694"
       style="fill:#ffffff" /><path
       fill="#413F41"
       d="M45.232,9.896H41.32c-0.047,0-0.087,0.041-0.087,0.092v0.158c0,0.051,0.04,0.092,0.087,0.092h3.912   c0.049,0,0.088-0.041,0.088-0.092V9.987C45.32,9.937,45.281,9.896,45.232,9.896z"
       id="path3696"
       style="fill:#ffffff" /><path
       fill="#413F41"
       d="M45.242,10.442H41.33c-0.049,0-0.088,0.04-0.088,0.091v0.159c0,0.05,0.039,0.091,0.088,0.091h3.912   c0.048,0,0.087-0.041,0.087-0.091v-0.159C45.329,10.482,45.29,10.442,45.242,10.442z"
       id="path3698"
       style="fill:#ffffff" /></g></svg>